<?xml version="1.0" encoding="UTF-8" standalone="no"?>
<svg
   height="255.79999"
   width="256"
   version="1.1"
   id="svg24"
   sodipodi:docname="icon.svg"
   inkscape:version="1.3 (0e150ed6c4, 2023-07-21)"
   inkscape:export-filename="C:\Users\TheDastanMR\Desktop\Godot\octo-spork-launcher\ico.ico"
   inkscape:export-xdpi="25.370001"
   inkscape:export-ydpi="25.370001"
   xmlns:inkscape="http://www.inkscape.org/namespaces/inkscape"
   xmlns:sodipodi="http://sodipodi.sourceforge.net/DTD/sodipodi-0.dtd"
   xmlns="http://www.w3.org/2000/svg"
   xmlns:svg="http://www.w3.org/2000/svg">
  <defs
     id="defs28" />
  <sodipodi:namedview
     id="namedview26"
     pagecolor="#ffffff"
     bordercolor="#666666"
     borderopacity="1.0"
     inkscape:pageshadow="2"
     inkscape:pageopacity="0.0"
     inkscape:pagecheckerboard="0"
     showgrid="false"
     inkscape:zoom="1.6273148"
     inkscape:cx="90.947369"
     inkscape:cy="165.30299"
     inkscape:window-width="1920"
     inkscape:window-height="1017"
     inkscape:window-x="-8"
     inkscape:window-y="-8"
     inkscape:window-maximized="1"
     inkscape:current-layer="svg24"
     fit-margin-top="0"
     fit-margin-left="0"
     fit-margin-right="0"
     fit-margin-bottom="0"
     inkscape:showpageshadow="2"
     inkscape:deskcolor="#d1d1d1" />
  <rect
     style="fill:#1a1a1a;stroke-width:2.29674;stroke-linecap:round;stroke-linejoin:round;paint-order:stroke fill markers"
     id="rect863"
     width="256"
     height="256"
     x="0"
     y="0" />
  <g
     id="g1"
     transform="translate(1.87e-4,-6.4658012e-5)">
    <path
       d="m 169.67771,38.668476 c 8.92212,3.286584 19.08279,9.010218 19.08279,19.078782 v 12.288796 c 0,0.457662 -0.0572,0.835232 -0.1087,1.286602 -0.22883,1.279164 -0.74541,2.581212 -1.39987,3.810608 8.47933,4.08406 17.41977,10.62691 17.41977,20.86252 V 109.7348 c 0,0.41189 0,0.75914 -0.0916,1.15388 -0.72768,4.57719 -4.24368,8.99076 -7.85463,12.23959 v 66.82723 c 6.50967,4.99824 11.90037,11.91694 11.90037,20.72178 0,14.58168 -14.43296,23.78528 -25.88022,28.61646 -16.69608,7.048 -36.83493,9.64352 -54.74782,9.64352 -17.90888,0 -38.058592,-2.59552 -54.74323,-9.64352 -11.44727,-4.83118 -25.880784,-14.03478 -25.880784,-28.61646 0,-9.05942 5.705328,-16.11827 12.46328,-21.15484 v -66.42849 c -3.768274,-3.63555 -7.295132,-8.64524 -7.602338,-13.75389 0,-0.16018 0,-0.29748 0,-0.45194 V 95.7332 C 52.160348,85.288782 60.63397,78.654972 69.149914,74.54059 68.517768,73.11383 68.064112,71.5881 67.97315,70.119004 c 0,-0.16018 0,-0.3032 0,-0.469104 V 57.600234 c 0,-0.12014 0,-0.234552 0,-0.354688 0.14874,-10.273366 10.03996,-15.92492 18.97295,-19.078782 -0.406176,-1.039466 -0.683634,-2.140142 -0.749422,-3.2105 0,-0.1659 0,-0.308922 0,-0.474824 v -7.525678 c -0.0034,-0.1945 -0.0034,-0.400454 0,-0.599538 C 86.92436,0.23688476 170.58954,0.844431 170.58954,26.922582 v 8.065146 c 0,0.446222 -0.0572,0.819788 -0.10298,1.259716 -0.14302,0.82379 -0.41189,1.63614 -0.76429,2.421604 z M 93.004464,26.565604 c 0.45194,-16.266449 70.686456,-15.575952 70.686456,0.36613 v 8.057712 c 0,0 -0.18878,1.130996 -1.57893,2.70192 v 5.95876 c 8.72475,2.561762 19.7956,7.188152 19.7956,14.09942 v 12.288796 c 0,0 -0.25744,1.46509 -1.94106,3.58292 v 6.038278 c 9.1704,3.669876 17.85053,9.063422 17.85053,16.338532 v 13.739008 c 0,0 -0.73798,4.66072 -7.93815,9.93985 v 74.0457 c 7.51824,4.88039 11.89693,10.70643 11.89693,16.95695 0,17.20408 -33.03347,31.1439 -73.77912,31.1439 -40.745068,0 -73.77453,-13.93982 -73.77453,-31.1439 0,-6.41414 4.590348,-12.37232 12.470716,-17.32537 v -73.56744 c -7.30257,-5.70018 -7.620644,-10.89579 -7.620644,-10.89579 V 95.702308 C 59.003602,87.910612 67.504112,82.5594 76.385614,79.109202 V 73.420464 C 74.898212,71.2111 74.799242,69.65505 74.799242,69.65505 V 57.56362 c 0,-0.06864 0,-0.14302 0,-0.211668 C 74.902222,49.989316 85.83004,45.6175 94.156056,43.351502 V 37.13874 c -1.0818,-1.552618 -1.151592,-2.653296 -1.151592,-2.653296 v -7.605196 c -0.0034,-0.1087 -0.0034,-0.21167 0,-0.308922 z"
       style="fill:#ffffff;fill-rule:evenodd;stroke-width:5.72078"
       id="path120" />
    <path
       d="m 100.91572,32.42425 c 6.3043,10.56055 55.5779,8.308852 55.5779,-2.121264 0,-3.701912 -6.12123,-6.184728 -14.32482,-7.453596 v 0.1945 c 0,5.122954 -24.21432,6.230496 -27.31384,1.040608 -0.2746,-0.457662 -0.36613,-0.880998 -0.32608,-1.276304 -9.76079,1.480536 -16.577092,4.683026 -13.63204,9.61319 z"
       style="fill:#ffffff;fill-rule:evenodd;stroke-width:5.72078"
       id="path122" />
    <path
       d="m 158.66637,29.675418 v 0 6.482782 c 0,0 -0.1659,0.909602 -1.35926,2.176182 v 4.79172 c 0.1373,0.0572 0.28032,0.0801 0.41762,0.11442 -12.17781,-3.431892 -46.6861,-3.44505 -58.805558,-0.326084 l 0.12014,-0.0572 v -4.995964 c -0.926198,-1.250562 -0.985694,-2.13671 -0.985694,-2.13671 V 29.60734 c -0.0017,-0.0572 -0.0022,-0.12014 -0.0017,-0.17734 0,0.829512 0.22311,1.725958 0.755142,2.692196 6.82603,12.382618 59.85933,9.586302 59.85933,-2.47595 z"
       style="fill:#10577d;fill-opacity:1;fill-rule:evenodd;stroke-width:5.72078"
       id="path124" />
    <path
       d="m 83.713354,76.095498 0.09154,-0.0572 V 71.460534 C 82.5263,69.682518 82.442778,68.437676 82.442778,68.437676 V 58.70378 c -5.72e-4,-0.0572 -5.72e-4,-0.10298 0,-0.15446 0,1.176192 0.337526,2.447348 1.143582,3.818618 2.91359,4.949042 11.18297,7.788834 20.12912,9.414678 -6.636102,0 -13.87288,2.045748 -19.99983,4.291152 z"
       style="fill:#ffffff;fill-rule:evenodd;stroke-width:5.72078"
       id="path126" />
    <path
       d="m 174.2612,58.49153 c 0,0.12586 0,0.257436 0,0.383292 v 9.88893 c 0,0 -0.22311,1.180196 -1.66646,2.88041 v 4.860942 l 0.10298,0.0572 c -7.06573,-2.66588 -14.5874,-4.937028 -22.20404,-4.909568 11.27679,-2.118402 23.76981,-5.99194 23.76981,-12.758472 0,-0.13158 0,-0.257434 0,-0.38329 z"
       style="fill:#ffffff;fill-rule:evenodd;stroke-width:5.72078"
       id="path128" />
    <path
       d="m 86.77168,62.994924 c 8.232766,14.014754 84.20865,12.308246 84.20865,-3.26885 0,-4.554308 -5.85692,-7.903822 -14.49415,-10.063414 v 0.07436 c 0,10.430116 -49.2736,12.682384 -55.57789,2.121262 -0.46339,-0.778596 -0.6762,-1.511428 -0.68307,-2.204214 -10.692122,2.652152 -17.124562,7.104058 -13.460978,13.341418 z"
       style="fill:#10577d;fill-rule:evenodd;stroke-width:5.72078"
       id="path130" />
    <path
       d="m 127.99844,186.11972 a 61.30725,23.598194 0 0 1 61.30668,23.5982 61.30725,23.598194 0 1 1 -61.30668,-23.5982 z"
       style="fill:#10577d;fill-rule:evenodd;stroke-width:5.72078"
       id="path132" />
    <path
       d="m 187.81829,96.882504 c 0,0.18878 0,0.37757 0,0.566356 v 11.05654 c 0,0 -0.40618,2.3787 -3.69276,5.49252 v 0 49.92634 c 0,3.24997 -2.72881,5.90956 -6.06459,5.90956 v 0 c -3.33636,0 -6.06517,-2.65959 -6.06517,-5.90956 v -42.82171 c -3.62296,1.40731 -8.06743,2.7391 -13.52677,3.87239 v 68.07092 c 0,3.24997 -2.72881,5.90956 -6.06459,5.90956 v 0 c -3.33579,0 -6.06517,-2.65959 -6.06517,-5.90956 v -66.12815 c -4.09207,0.48627 -8.58802,0.87643 -13.5262,1.13901 v 88.47064 c 0,3.25054 -2.72938,5.90956 -6.06516,5.90956 v 0 c -3.33578,0 -6.06517,-2.65902 -6.06517,-5.90956 v -88.5822 c -4.9702,-0.26887 -9.4633,-0.67734 -13.5262,-1.19678 v 64.5126 c 0,3.24997 -2.72938,5.90956 -6.06516,5.90956 v 0 c -3.335784,0 -6.065166,-2.65959 -6.065166,-5.90956 v -66.64016 c -4.48051,-1.03775 -8.19558,-2.22996 -11.274502,-3.49081 v 47.32625 c 0,3.25054 -2.72938,5.90956 -6.065164,5.90956 v 0 c -3.335784,0 -6.064594,-2.65902 -6.064594,-5.90956 V 113.1787 c -2.626406,-3.05604 -2.777436,-5.35407 -2.777436,-5.35407 V 97.214308 c -5.72e-4,-0.0572 5.72e-4,-0.09726 0.0011,-0.14874 0,1.582366 0.4405,3.290022 1.480538,5.132102 13.390616,23.73721 117.484684,18.39515 117.484684,-4.749382 0,-0.18878 0,-0.377572 0,-0.566356 z"
       style="fill:#ffffff;fill-rule:evenodd;stroke-width:5.72078"
       id="path134" />
    <path
       d="M 74.492038,99.243466 C 86.857492,121.21238 183.57634,116.54366 183.57634,94.82474 c 0,-4.935312 -4.91873,-8.825438 -12.66752,-11.682392 0.0572,0.280318 0.0686,0.566356 0.0686,0.86212 0,15.577096 -75.975884,17.283602 -84.20865,3.26885 -0.892442,-1.518866 -1.171044,-2.930752 -0.951938,-4.23795 -10.053688,3.666446 -15.345978,9.068 -11.327706,16.208098 z"
       style="fill:#10577d;fill-rule:evenodd;stroke-width:5.72078"
       id="path136" />
  </g>
</svg>
